<?xml version="1.0" standalone="no"?>
<svg xmlns="http://www.w3.org/2000/svg" width="90" height="724.482421875"><g transform="translate(60,20)"><g class="x axis" transform="translate(0,600)" fill="none" font-size="10" font-family="sans-serif" text-anchor="middle"><path class="domain" stroke="#000" d="M0.5,6V0.5H30.5V6"/><g class="tick" opacity="1" transform="translate(5.32258064516129,0)"><line stroke="#000" y2="6"/><text fill="#000" y="9" dy="-0.5em" dx="-.8em" transform="rotate(-90)" style="text-anchor: end;">ERR867678</text></g><g class="tick" opacity="1" transform="translate(15,0)"><line stroke="#000" y2="6"/><text fill="#000" y="9" dy="-0.5em" dx="-.8em" transform="rotate(-90)" style="text-anchor: end;">ERR867675</text></g><g class="tick" opacity="1" transform="translate(24.677419354838708,0)"><line stroke="#000" y2="6"/><text fill="#000" y="9" dy="-0.5em" dx="-.8em" transform="rotate(-90)" style="text-anchor: end;">ERR867927</text></g></g><g class="y axis" fill="none" font-size="10" font-family="sans-serif" text-anchor="end"><path class="domain" stroke="#000" d="M-6,600.5H0.5V0.5H-6"/><g class="tick" opacity="1" transform="translate(0,600.5)"><line stroke="#000" x2="-6"/><text fill="#000" x="-9" dy="0.32em">0%</text></g><g class="tick" opacity="1" transform="translate(0,540.5)"><line stroke="#000" x2="-6"/><text fill="#000" x="-9" dy="0.32em">10%</text></g><g class="tick" opacity="1" transform="translate(0,480.5)"><line stroke="#000" x2="-6"/><text fill="#000" x="-9" dy="0.32em">20%</text></g><g class="tick" opacity="1" transform="translate(0,420.5)"><line stroke="#000" x2="-6"/><text fill="#000" x="-9" dy="0.32em">30%</text></g><g class="tick" opacity="1" transform="translate(0,360.5)"><line stroke="#000" x2="-6"/><text fill="#000" x="-9" dy="0.32em">40%</text></g><g class="tick" opacity="1" transform="translate(0,300.5)"><line stroke="#000" x2="-6"/><text fill="#000" x="-9" dy="0.32em">50%</text></g><g class="tick" opacity="1" transform="translate(0,240.5)"><line stroke="#000" x2="-6"/><text fill="#000" x="-9" dy="0.32em">60%</text></g><g class="tick" opacity="1" transform="translate(0,180.5)"><line stroke="#000" x2="-6"/><text fill="#000" x="-9" dy="0.32em">70%</text></g><g class="tick" opacity="1" transform="translate(0,120.5)"><line stroke="#000" x2="-6"/><text fill="#000" x="-9" dy="0.32em">80%</text></g><g class="tick" opacity="1" transform="translate(0,60.5)"><line stroke="#000" x2="-6"/><text fill="#000" x="-9" dy="0.32em">90%</text></g><g class="tick" opacity="1" transform="translate(0,0.5)"><line stroke="#000" x2="-6"/><text fill="#000" x="-9" dy="0.32em">100%</text></g></g><text id="y-label" text-anchor="middle" transform="translate(-30,300)rotate(-90)" style="font-style: normal; font-variant-caps: normal; font-weight: normal; font-stretch: normal; font-size: 12px; line-height: normal; font-family: sans-serif;">Relative Frequency</text><text id="x-label" text-anchor="middle" transform="translate(15,684.482421875)" style="font-style: normal; font-variant-caps: normal; font-weight: normal; font-stretch: normal; font-size: 12px; line-height: normal; font-family: sans-serif;">Sample</text><g class="layer" style="fill: rgb(253, 192, 134);"><rect x="10.64516129032258" y="599.7808962387188" height="0.12520214930350448" width="8.70967741935484"/><rect x="0.9677419354838701" y="599.9355912189362" height="0" width="8.70967741935484"/><rect x="20.32258064516129" y="600" height="0" width="8.70967741935484"/></g><g class="layer" style="fill: rgb(56, 108, 176);"><rect x="10.64516129032258" y="599.4991914027858" height="0.15650268662943745" width="8.70967741935484"/><rect x="0.9677419354838701" y="599.9355912189362" height="0" width="8.70967741935484"/><rect x="20.32258064516129" y="600" height="0" width="8.70967741935484"/></g><g class="layer" style="fill: rgb(240, 2, 127);"><rect x="10.64516129032258" y="592.3626688924827" height="0.5321091345400646" width="8.70967741935484"/><rect x="0.9677419354838701" y="599.2592990177661" height="0" width="8.70967741935484"/><rect x="20.32258064516129" y="597.6862609383497" height="0" width="8.70967741935484"/></g><g class="layer" style="fill: rgb(127, 201, 127);"><rect x="10.64516129032258" y="554.8333246387397" height="2.785747822004282" width="8.70967741935484"/><rect x="0.9677419354838701" y="589.4047555150019" height="0" width="8.70967741935484"/><rect x="20.32258064516129" y="578.2864488060513" height="0" width="8.70967741935484"/></g><g class="layer" style="fill: rgb(190, 174, 212);"><rect x="10.64516129032258" y="554.8333246387397" height="0" width="8.70967741935484"/><rect x="0.9677419354838701" y="588.6318501422361" height="0.7729053727657629" width="8.70967741935484"/><rect x="20.32258064516129" y="576.3583329213427" height="1.9281158847086317" width="8.70967741935484"/></g><g class="layer" style="fill: rgb(190, 174, 212);"><rect x="10.64516129032258" y="548.1663101883249" height="2.566644060722979" width="8.70967741935484"/><rect x="0.9677419354838701" y="580.838387633514" height="0" width="8.70967741935484"/><rect x="20.32258064516129" y="560.9630691649775" height="2.8180155238048883" width="8.70967741935484"/></g><g class="layer" style="fill: rgb(255, 255, 153);"><rect x="10.64516129032258" y="436.3294903229172" height="29.860712608899803" width="8.70967741935484"/><rect x="0.9677419354838701" y="506.3174279426762" height="0" width="8.70967741935484"/><rect x="20.32258064516129" y="423.8888614228506" height="0" width="8.70967741935484"/></g><g class="layer" style="fill: rgb(190, 174, 212);"><rect x="10.64516129032258" y="591.2045490114247" height="0.5947102091919305" width="8.70967741935484"/><rect x="0.9677419354838701" y="599.2592990177661" height="0" width="8.70967741935484"/><rect x="20.32258064516129" y="596.6777080140406" height="0" width="8.70967741935484"/></g><g class="layer" style="fill: rgb(102, 102, 102);"><rect x="10.64516129032258" y="586.4155668005634" height="0.9390161197767384" width="8.70967741935484"/><rect x="0.9677419354838701" y="598.1643497396811" height="0" width="8.70967741935484"/><rect x="20.32258064516129" y="592.1392198546497" height="0" width="8.70967741935484"/></g><g class="layer" style="fill: rgb(102, 102, 102);"><rect x="10.64516129032258" y="526.4750378214826" height="0" width="8.70967741935484"/><rect x="0.9677419354838701" y="568.5041060597928" height="0" width="8.70967741935484"/><rect x="20.32258064516129" y="531.8930142878331" height="13.407821229050228" width="8.70967741935484"/></g><g class="layer" style="fill: rgb(253, 192, 134);"><rect x="10.64516129032258" y="525.191715791121" height="0" width="8.70967741935484"/><rect x="0.9677419354838701" y="554.1409478825614" height="0.740700982233875" width="8.70967741935484"/><rect x="20.32258064516129" y="501.36945666683147" height="15.157957185939551" width="8.70967741935484"/></g><g class="layer" style="fill: rgb(255, 255, 153);"><rect x="10.64516129032258" y="599.6556940894152" height="0.12520214930361817" width="8.70967741935484"/><rect x="0.9677419354838701" y="599.9355912189362" height="0" width="8.70967741935484"/><rect x="20.32258064516129" y="600" height="0" width="8.70967741935484"/></g><g class="layer" style="fill: rgb(56, 108, 176);"><rect x="10.64516129032258" y="584.4436329490322" height="0" width="8.70967741935484"/><rect x="0.9677419354838701" y="597.1660136331919" height="0" width="8.70967741935484"/><rect x="20.32258064516129" y="590.2111039699412" height="0.9788896030058822" width="8.70967741935484"/></g><g class="layer" style="fill: rgb(190, 174, 212);"><rect x="10.64516129032258" y="577.9957222598988" height="1.5963274036204211" width="8.70967741935484"/><rect x="0.9677419354838701" y="592.7218077397886" height="0" width="8.70967741935484"/><rect x="20.32258064516129" y="585.2573293123054" height="0" width="8.70967741935484"/></g><g class="layer" style="fill: rgb(255, 255, 153);"><rect x="10.64516129032258" y="594.835411341228" height="0.3756064479107408" width="8.70967741935484"/><rect x="0.9677419354838701" y="599.7423648757447" height="0" width="8.70967741935484"/><rect x="20.32258064516129" y="599.0211103969941" height="0" width="8.70967741935484"/></g><g class="layer" style="fill: rgb(240, 2, 127);"><rect x="10.64516129032258" y="598.0593666857948" height="0.25040429860712266" width="8.70967741935484"/><rect x="0.9677419354838701" y="599.7423648757447" height="0" width="8.70967741935484"/><rect x="20.32258064516129" y="599.7923567508775" height="0" width="8.70967741935484"/></g><g class="layer" style="fill: rgb(102, 102, 102);"><rect x="10.64516129032258" y="593.3016850122593" height="0.4069069852366738" width="8.70967741935484"/><rect x="0.9677419354838701" y="599.7423648757447" height="0" width="8.70967741935484"/><rect x="20.32258064516129" y="599.0211103969941" height="0" width="8.70967741935484"/></g><g class="layer" style="fill: rgb(127, 201, 127);"><rect x="10.64516129032258" y="569.2315718086494" height="1.0016171944284906" width="8.70967741935484"/><rect x="0.9677419354838701" y="590.3064784498953" height="1.3203800118083109" width="8.70967741935484"/><rect x="20.32258064516129" y="583.1215701784743" height="0" width="8.70967741935484"/></g><g class="layer" style="fill: rgb(56, 108, 176);"><rect x="10.64516129032258" y="594.4598048933174" height="0.37560644791062714" width="8.70967741935484"/><rect x="0.9677419354838701" y="599.7423648757447" height="0" width="8.70967741935484"/><rect x="20.32258064516129" y="599.0211103969941" height="0" width="8.70967741935484"/></g><g class="layer" style="fill: rgb(56, 108, 176);"><rect x="10.64516129032258" y="588.0118942041838" height="0" width="8.70967741935484"/><rect x="0.9677419354838701" y="598.3897804734046" height="0" width="8.70967741935484"/><rect x="20.32258064516129" y="592.9697928511396" height="0.8305729964898774" width="8.70967741935484"/></g><g class="layer" style="fill: rgb(190, 174, 212);"><rect x="10.64516129032258" y="568.9498669727163" height="0.2817048359330556" width="8.70967741935484"/><rect x="0.9677419354838701" y="589.4047555150019" height="0.9017229348934279" width="8.70967741935484"/><rect x="20.32258064516129" y="581.9647006476491" height="1.1568695308251336" width="8.70967741935484"/></g><g class="layer" style="fill: rgb(102, 102, 102);"><rect x="10.64516129032258" y="82.75862068965523" height="51.86499034900095" width="8.70967741935484"/><rect x="0.9677419354838701" y="147.04524716869736" height="62.798561537222895" width="8.70967741935484"/><rect x="20.32258064516129" y="171.3946704899392" height="19.963415237059337" width="8.70967741935484"/></g><g class="layer" style="fill: rgb(102, 102, 102);"><rect x="10.64516129032258" y="589.6395221451302" height="0.1878032239553704" width="8.70967741935484"/><rect x="0.9677419354838701" y="599.2592990177661" height="0" width="8.70967741935484"/><rect x="20.32258064516129" y="594.5122855589065" height="0.533939783457754" width="8.70967741935484"/></g><g class="layer" style="fill: rgb(127, 201, 127);"><rect x="10.64516129032258" y="354.79159058897176" height="45.57358234649695" width="8.70967741935484"/><rect x="0.9677419354838701" y="446.99694058289947" height="10.85287960925342" width="8.70967741935484"/><rect x="20.32258064516129" y="355.39625253374203" height="0" width="8.70967741935484"/></g><g class="layer" style="fill: rgb(127, 201, 127);"><rect x="10.64516129032258" y="526.4750378214826" height="0" width="8.70967741935484"/><rect x="0.9677419354838701" y="561.322526971177" height="7.181579088615763" width="8.70967741935484"/><rect x="20.32258064516129" y="525.0704503880951" height="6.822563899738043" width="8.70967741935484"/></g><g class="layer" style="fill: rgb(253, 192, 134);"><rect x="10.64516129032258" y="313.7252856174031" height="2.1910376128123517" width="8.70967741935484"/><rect x="0.9677419354838701" y="419.7842305834362" height="20.836240674145245" width="8.70967741935484"/><rect x="20.32258064516129" y="262.2830869629703" height="70.86567459336533" width="8.70967741935484"/></g><g class="layer" style="fill: rgb(127, 201, 127);"><rect x="10.64516129032258" y="67.51525901194645" height="15.243361677708776" width="8.70967741935484"/><rect x="0.9677419354838701" y="5.442541999892683" height="141.60270516880468" width="8.70967741935484"/><rect x="20.32258064516129" y="171.3946704899392" height="0" width="8.70967741935484"/></g><g class="layer" style="fill: rgb(56, 108, 176);"><rect x="10.64516129032258" y="552.6735875632531" height="0" width="8.70967741935484"/><rect x="0.9677419354838701" y="584.6385057162793" height="3.220439053190944" width="8.70967741935484"/><rect x="20.32258064516129" y="573.4809907549316" height="0" width="8.70967741935484"/></g><g class="layer" style="fill: rgb(127, 201, 127);"><rect x="10.64516129032258" y="579.5920496635192" height="1.4085241796650507" width="8.70967741935484"/><rect x="0.9677419354838701" y="592.7218077397886" height="0" width="8.70967741935484"/><rect x="20.32258064516129" y="585.2573293123054" height="0" width="8.70967741935484"/></g><g class="layer" style="fill: rgb(190, 174, 212);"><rect x="10.64516129032258" y="525.191715791121" height="1.2833220303615462" width="8.70967741935484"/><rect x="0.9677419354838701" y="554.8816488647952" height="6.440878106381774" width="8.70967741935484"/><rect x="20.32258064516129" y="516.527413852771" height="8.543036535324063" width="8.70967741935484"/></g><g class="layer" style="fill: rgb(240, 2, 127);"><rect x="10.64516129032258" y="196.06656580937977" height="19.437633679378166" width="8.70967741935484"/><rect x="0.9677419354838701" y="271.5474209650583" height="57.227201975202604" width="8.70967741935484"/><rect x="20.32258064516129" y="191.35808572699852" height="43.24912246007813" width="8.70967741935484"/></g><g class="layer" style="fill: rgb(56, 108, 176);"><rect x="10.64516129032258" y="521.3104491627106" height="2.8796494339819674" width="8.70967741935484"/><rect x="0.9677419354838701" y="538.5862272556492" height="15.136063549997289" width="8.70967741935484"/><rect x="20.32258064516129" y="484.3723735600929" height="0.8898996390962566" width="8.70967741935484"/></g><g class="layer" style="fill: rgb(102, 102, 102);"><rect x="10.64516129032258" y="570.2331890030779" height="0" width="8.70967741935484"/><rect x="0.9677419354838701" y="591.6268584617036" height="0" width="8.70967741935484"/><rect x="20.32258064516129" y="583.1215701784743" height="2.1357591338311295" width="8.70967741935484"/></g><g class="layer" style="fill: rgb(253, 192, 134);"><rect x="10.64516129032258" y="584.4436329490322" height="1.0016171944286043" width="8.70967741935484"/><rect x="0.9677419354838701" y="597.1660136331919" height="0" width="8.70967741935484"/><rect x="20.32258064516129" y="592.1392198546497" height="0" width="8.70967741935484"/></g><g class="layer" style="fill: rgb(253, 192, 134);"><rect x="10.64516129032258" y="545.255360217017" height="2.9109499713079003" width="8.70967741935484"/><rect x="0.9677419354838701" y="580.484139337663" height="0.3542482958509936" width="8.70967741935484"/><rect x="20.32258064516129" y="557.1365007168636" height="3.8265684481139033" width="8.70967741935484"/></g><g class="layer" style="fill: rgb(127, 201, 127);"><rect x="10.64516129032258" y="589.6395221451302" height="0" width="8.70967741935484"/><rect x="0.9677419354838701" y="599.2592990177661" height="0" width="8.70967741935484"/><rect x="20.32258064516129" y="593.8003658476295" height="0.7119197112770053" width="8.70967741935484"/></g><g class="layer" style="fill: rgb(190, 174, 212);"><rect x="10.64516129032258" y="597.2768532526475" height="0.2817048359330556" width="8.70967741935484"/><rect x="0.9677419354838701" y="599.7423648757447" height="0" width="8.70967741935484"/><rect x="20.32258064516129" y="599.5550501804519" height="0" width="8.70967741935484"/></g><g class="layer" style="fill: rgb(56, 108, 176);"><rect x="10.64516129032258" y="590.0151285930408" height="0" width="8.70967741935484"/><rect x="0.9677419354838701" y="599.2592990177661" height="0" width="8.70967741935484"/><rect x="20.32258064516129" y="596.0844415879765" height="0.5932664260641332" width="8.70967741935484"/></g><g class="layer" style="fill: rgb(191, 91, 23);"><rect x="10.64516129032258" y="589.8273253690855" height="0.18780322395525673" width="8.70967741935484"/><rect x="0.9677419354838701" y="599.2592990177661" height="0" width="8.70967741935484"/><rect x="20.32258064516129" y="595.0462253423642" height="0.4449498195481283" width="8.70967741935484"/></g><g class="layer" style="fill: rgb(191, 91, 23);"><rect x="10.64516129032258" y="570.2331890030779" height="1.971933851531162" width="8.70967741935484"/><rect x="0.9677419354838701" y="591.6268584617036" height="0" width="8.70967741935484"/><rect x="20.32258064516129" y="585.2573293123054" height="0" width="8.70967741935484"/></g><g class="layer" style="fill: rgb(240, 2, 127);"><rect x="10.64516129032258" y="599.3113881788304" height="0.1878032239553704" width="8.70967741935484"/><rect x="0.9677419354838701" y="599.9355912189362" height="0" width="8.70967741935484"/><rect x="20.32258064516129" y="600" height="0" width="8.70967741935484"/></g><g class="layer" style="fill: rgb(127, 201, 127);"><rect x="10.64516129032258" y="582.6595023214566" height="1.126819343731995" width="8.70967741935484"/><rect x="0.9677419354838701" y="596.0388599645752" height="0" width="8.70967741935484"/><rect x="20.32258064516129" y="588.7872645473872" height="0" width="8.70967741935484"/></g><g class="layer" style="fill: rgb(255, 255, 153);"><rect x="10.64516129032258" y="581.939589962961" height="0.25040429860712266" width="8.70967741935484"/><rect x="0.9677419354838701" y="594.3642316569159" height="0.9983361064892051" width="8.70967741935484"/><rect x="20.32258064516129" y="587.6897216591684" height="0" width="8.70967741935484"/></g><g class="layer" style="fill: rgb(240, 2, 127);"><rect x="10.64516129032258" y="594.0841984454066" height="0.3756064479107408" width="8.70967741935484"/><rect x="0.9677419354838701" y="599.7423648757447" height="0" width="8.70967741935484"/><rect x="20.32258064516129" y="599.0211103969941" height="0" width="8.70967741935484"/></g><g class="layer" style="fill: rgb(253, 192, 134);"><rect x="10.64516129032258" y="592.8947780270228" height="0" width="8.70967741935484"/><rect x="0.9677419354838701" y="599.2592990177661" height="0.48306585797854495" width="8.70967741935484"/><rect x="20.32258064516129" y="598.6058238987492" height="0" width="8.70967741935484"/></g><g class="layer" style="fill: rgb(191, 91, 23);"><rect x="10.64516129032258" y="599.123584954875" height="0.1878032239553704" width="8.70967741935484"/><rect x="0.9677419354838701" y="599.9355912189362" height="0" width="8.70967741935484"/><rect x="20.32258064516129" y="600" height="0" width="8.70967741935484"/></g><g class="layer" style="fill: rgb(253, 192, 134);"><rect x="10.64516129032258" y="598.5288747456831" height="0.21910376128130338" width="8.70967741935484"/><rect x="0.9677419354838701" y="599.7423648757447" height="0" width="8.70967741935484"/><rect x="20.32258064516129" y="600" height="0" width="8.70967741935484"/></g><g class="layer" style="fill: rgb(253, 192, 134);"><rect x="10.64516129032258" y="582.1899942615681" height="0" width="8.70967741935484"/><rect x="0.9677419354838701" y="595.3625677634051" height="0" width="8.70967741935484"/><rect x="20.32258064516129" y="587.6897216591684" height="1.0975428882187543" width="8.70967741935484"/></g><g class="layer" style="fill: rgb(190, 174, 212);"><rect x="10.64516129032258" y="582.1899942615681" height="0.46950805988842603" width="8.70967741935484"/><rect x="0.9677419354838701" y="595.3625677634051" height="0.6762922011700994" width="8.70967741935484"/><rect x="20.32258064516129" y="588.7872645473872" height="0" width="8.70967741935484"/></g><g class="layer" style="fill: rgb(102, 102, 102);"><rect x="10.64516129032258" y="581.0005738431843" height="0" width="8.70967741935484"/><rect x="0.9677419354838701" y="592.7218077397886" height="0" width="8.70967741935484"/><rect x="20.32258064516129" y="585.2573293123054" height="1.275522816037892" width="8.70967741935484"/></g><g class="layer" style="fill: rgb(190, 174, 212);"><rect x="10.64516129032258" y="1.1368683772161603e-13" height="67.51525901194634" width="8.70967741935484"/><rect x="0.9677419354838701" y="0" height="5.442541999892683" width="8.70967741935484"/><rect x="20.32258064516129" y="0" height="171.3946704899392" width="8.70967741935484"/></g><g class="layer" style="fill: rgb(255, 255, 153);"><rect x="10.64516129032258" y="542.2192080964056" height="3.036152120611405" width="8.70967741935484"/><rect x="0.9677419354838701" y="575.0415973377703" height="5.442541999892683" width="8.70967741935484"/><rect x="20.32258064516129" y="557.1365007168636" height="0" width="8.70967741935484"/></g><g class="layer" style="fill: rgb(127, 201, 127);"><rect x="10.64516129032258" y="595.8370285356565" height="0.3130053732589886" width="8.70967741935484"/><rect x="0.9677419354838701" y="599.7423648757447" height="0" width="8.70967741935484"/><rect x="20.32258064516129" y="599.0211103969941" height="0" width="8.70967741935484"/></g><g class="layer" style="fill: rgb(190, 174, 212);"><rect x="10.64516129032258" y="595.5240231623976" height="0.3130053732588749" width="8.70967741935484"/><rect x="0.9677419354838701" y="599.7423648757447" height="0" width="8.70967741935484"/><rect x="20.32258064516129" y="599.0211103969941" height="0" width="8.70967741935484"/></g><g class="layer" style="fill: rgb(253, 192, 134);"><rect x="10.64516129032258" y="595.2110177891387" height="0.3130053732588749" width="8.70967741935484"/><rect x="0.9677419354838701" y="599.7423648757447" height="0" width="8.70967741935484"/><rect x="20.32258064516129" y="599.0211103969941" height="0" width="8.70967741935484"/></g><g class="layer" style="fill: rgb(191, 91, 23);"><rect x="10.64516129032258" y="597.8089623871876" height="0.25040429860712266" width="8.70967741935484"/><rect x="0.9677419354838701" y="599.7423648757447" height="0" width="8.70967741935484"/><rect x="20.32258064516129" y="599.7923567508775" height="0" width="8.70967741935484"/></g><g class="layer" style="fill: rgb(190, 174, 212);"><rect x="10.64516129032258" y="592.8947780270228" height="0" width="8.70967741935484"/><rect x="0.9677419354838701" y="599.7423648757447" height="0" width="8.70967741935484"/><rect x="20.32258064516129" y="598.6058238987492" height="0.41528649824488184" width="8.70967741935484"/></g><g class="layer" style="fill: rgb(102, 102, 102);"><rect x="10.64516129032258" y="400.3651729354687" height="0.31300537325893174" width="8.70967741935484"/><rect x="0.9677419354838701" y="457.8498201921529" height="4.476410283935365" width="8.70967741935484"/><rect x="20.32258064516129" y="355.39625253374203" height="39.600533939783475" width="8.70967741935484"/></g><g class="layer" style="fill: rgb(102, 102, 102);"><rect x="10.64516129032258" y="598.9357817309198" height="0.18780322395525673" width="8.70967741935484"/><rect x="0.9677419354838701" y="599.9355912189362" height="0" width="8.70967741935484"/><rect x="20.32258064516129" y="600" height="0" width="8.70967741935484"/></g><g class="layer" style="fill: rgb(56, 108, 176);"><rect x="10.64516129032258" y="592.8947780270228" height="0" width="8.70967741935484"/><rect x="0.9677419354838701" y="599.2592990177661" height="0" width="8.70967741935484"/><rect x="20.32258064516129" y="597.6862609383497" height="0.47461314085137474" width="8.70967741935484"/></g><g class="layer" style="fill: rgb(127, 201, 127);"><rect x="10.64516129032258" y="585.4452501434608" height="0.9703166571025577" width="8.70967741935484"/><rect x="0.9677419354838701" y="598.1643497396811" height="0" width="8.70967741935484"/><rect x="20.32258064516129" y="592.1392198546497" height="0" width="8.70967741935484"/></g><g class="layer" style="fill: rgb(127, 201, 127);"><rect x="10.64516129032258" y="598.7479785069644" height="0.1878032239553704" width="8.70967741935484"/><rect x="0.9677419354838701" y="599.9355912189362" height="0" width="8.70967741935484"/><rect x="20.32258064516129" y="600" height="0" width="8.70967741935484"/></g><g class="layer" style="fill: rgb(255, 255, 153);"><rect x="10.64516129032258" y="575.8359851844124" height="0.5634096718659976" width="8.70967741935484"/><rect x="0.9677419354838701" y="591.6268584617036" height="1.0949492780849823" width="8.70967741935484"/><rect x="20.32258064516129" y="585.2573293123054" height="0" width="8.70967741935484"/></g><g class="layer" style="fill: rgb(190, 174, 212);"><rect x="10.64516129032258" y="315.9163232302154" height="38.87526735875633" width="8.70967741935484"/><rect x="0.9677419354838701" y="440.62047125758147" height="6.3764693253179985" width="8.70967741935484"/><rect x="20.32258064516129" y="333.1487615563356" height="22.247490977406414" width="8.70967741935484"/></g><g class="layer" style="fill: rgb(255, 255, 153);"><rect x="10.64516129032258" y="524.1900985966926" height="1.0016171944284906" width="8.70967741935484"/><rect x="0.9677419354838701" y="553.7222908056465" height="0.41865707691488296" width="8.70967741935484"/><rect x="20.32258064516129" y="485.26227319918917" height="16.1071834676423" width="8.70967741935484"/></g><g class="layer" style="fill: rgb(191, 91, 23);"><rect x="10.64516129032258" y="134.62361103865618" height="61.44295477072359" width="8.70967741935484"/><rect x="0.9677419354838701" y="209.84380870592025" height="61.703612259138026" width="8.70967741935484"/><rect x="20.32258064516129" y="191.35808572699852" height="0" width="8.70967741935484"/></g><g class="layer" style="fill: rgb(191, 91, 23);"><rect x="10.64516129032258" y="400.67817830872764" height="10.360477854869828" width="8.70967741935484"/><rect x="0.9677419354838701" y="462.32623047608826" height="29.209382212441653" width="8.70967741935484"/><rect x="20.32258064516129" y="394.9967864735255" height="0.8898996390962566" width="8.70967741935484"/></g><g class="layer" style="fill: rgb(56, 108, 176);"><rect x="10.64516129032258" y="215.50419948875793" height="14.711252543168598" width="8.70967741935484"/><rect x="0.9677419354838701" y="328.7746229402609" height="71.23611185658314" width="8.70967741935484"/><rect x="20.32258064516129" y="234.60720818707665" height="24.650220002966307" width="8.70967741935484"/></g><g class="layer" style="fill: rgb(255, 255, 153);"><rect x="10.64516129032258" y="230.21545203192653" height="83.50983358547654" width="8.70967741935484"/><rect x="0.9677419354838701" y="400.010734796844" height="19.773495786592207" width="8.70967741935484"/><rect x="20.32258064516129" y="259.25742819004296" height="3.025658772927329" width="8.70967741935484"/></g><g class="layer" style="fill: rgb(240, 2, 127);"><rect x="10.64516129032258" y="526.4750378214826" height="8.576347227294036" width="8.70967741935484"/><rect x="0.9677419354838701" y="568.5041060597928" height="3.188234662659056" width="8.70967741935484"/><rect x="20.32258064516129" y="556.8398675038316" height="0" width="8.70967741935484"/></g><g class="layer" style="fill: rgb(102, 102, 102);"><rect x="10.64516129032258" y="597.5585580885805" height="0.25040429860712266" width="8.70967741935484"/><rect x="0.9677419354838701" y="599.7423648757447" height="0" width="8.70967741935484"/><rect x="20.32258064516129" y="599.7923567508775" height="0" width="8.70967741935484"/></g><g class="layer" style="fill: rgb(253, 192, 134);"><rect x="10.64516129032258" y="597.2768532526475" height="0" width="8.70967741935484"/><rect x="0.9677419354838701" y="599.7423648757447" height="0" width="8.70967741935484"/><rect x="20.32258064516129" y="599.288080288723" height="0.266969891728877" width="8.70967741935484"/></g><g class="layer" style="fill: rgb(190, 174, 212);"><rect x="10.64516129032258" y="483.2802963117533" height="0.9077155824508054" width="8.70967741935484"/><rect x="0.9677419354838701" y="515.8821319306533" height="1.6746283076591908" width="8.70967741935484"/><rect x="20.32258064516129" y="426.1432738418945" height="24.620556681663118" width="8.70967741935484"/></g><g class="layer" style="fill: rgb(102, 102, 102);"><rect x="10.64516129032258" y="557.619072460744" height="1.5963274036204211" width="8.70967741935484"/><rect x="0.9677419354838701" y="589.4047555150019" height="0" width="8.70967741935484"/><rect x="20.32258064516129" y="578.2864488060513" height="1.0975428882186407" width="8.70967741935484"/></g><g class="layer" style="fill: rgb(191, 91, 23);"><rect x="10.64516129032258" y="583.7863216651886" height="0" width="8.70967741935484"/><rect x="0.9677419354838701" y="596.0388599645752" height="1.1271536686167565" width="8.70967741935484"/><rect x="20.32258064516129" y="589.8254807929994" height="0" width="8.70967741935484"/></g><g class="layer" style="fill: rgb(56, 108, 176);"><rect x="10.64516129032258" y="581.939589962961" height="0" width="8.70967741935484"/><rect x="0.9677419354838701" y="593.9133701894692" height="0.4508614674466571" width="8.70967741935484"/><rect x="20.32258064516129" y="586.918475305285" height="0.7712463538833845" width="8.70967741935484"/></g><g class="layer" style="fill: rgb(127, 201, 127);"><rect x="10.64516129032258" y="592.8947780270228" height="0.4069069852365601" width="8.70967741935484"/><rect x="0.9677419354838701" y="599.7423648757447" height="0" width="8.70967741935484"/><rect x="20.32258064516129" y="599.0211103969941" height="0" width="8.70967741935484"/></g><g class="layer" style="fill: rgb(56, 108, 176);"><rect x="10.64516129032258" y="535.0513850487766" height="7.1678230476289855" width="8.70967741935484"/><rect x="0.9677419354838701" y="571.6923407224518" height="3.3492566153184953" width="8.70967741935484"/><rect x="20.32258064516129" y="556.8398675038316" height="0.29663321303200973" width="8.70967741935484"/></g><g class="layer" style="fill: rgb(255, 255, 153);"><rect x="10.64516129032258" y="552.6735875632531" height="1.7528300902498586" width="8.70967741935484"/><rect x="0.9677419354838701" y="587.8589447694702" height="0" width="8.70967741935484"/><rect x="20.32258064516129" y="573.4809907549316" height="1.1865328521282663" width="8.70967741935484"/></g><g class="layer" style="fill: rgb(253, 192, 134);"><rect x="10.64516129032258" y="576.3993948562784" height="1.5963274036204211" width="8.70967741935484"/><rect x="0.9677419354838701" y="592.7218077397886" height="0" width="8.70967741935484"/><rect x="20.32258064516129" y="585.2573293123054" height="0" width="8.70967741935484"/></g><g class="layer" style="fill: rgb(253, 192, 134);"><rect x="10.64516129032258" y="466.190202931817" height="17.09009337993632" width="8.70967741935484"/><rect x="0.9677419354838701" y="506.3174279426762" height="9.564703987977055" width="8.70967741935484"/><rect x="20.32258064516129" y="423.8888614228506" height="2.254412419043888" width="8.70967741935484"/></g><g class="layer" style="fill: rgb(240, 2, 127);"><rect x="10.64516129032258" y="550.7329542490479" height="1.940633314205229" width="8.70967741935484"/><rect x="0.9677419354838701" y="583.1571037518115" height="1.48140196446775" width="8.70967741935484"/><rect x="20.32258064516129" y="573.4809907549316" height="0" width="8.70967741935484"/></g><g class="layer" style="fill: rgb(191, 91, 23);"><rect x="10.64516129032258" y="517.4291825343001" height="1.533726328968669" width="8.70967741935484"/><rect x="0.9677419354838701" y="526.9926466641618" height="4.830658579786359" width="8.70967741935484"/><rect x="20.32258064516129" y="463.01478222178275" height="12.013645127799464" width="8.70967741935484"/></g><g class="layer" style="fill: rgb(255, 255, 153);"><rect x="10.64516129032258" y="596.9951484167145" height="0.28170483593294193" width="8.70967741935484"/><rect x="0.9677419354838701" y="599.7423648757447" height="0" width="8.70967741935484"/><rect x="20.32258064516129" y="599.288080288723" height="0" width="8.70967741935484"/></g><g class="layer" style="fill: rgb(253, 192, 134);"><rect x="10.64516129032258" y="590.6098388022327" height="0.5947102091919305" width="8.70967741935484"/><rect x="0.9677419354838701" y="599.2592990177661" height="0" width="8.70967741935484"/><rect x="20.32258064516129" y="596.6777080140406" height="0" width="8.70967741935484"/></g><g class="layer" style="fill: rgb(255, 255, 153);"><rect x="10.64516129032258" y="598.3097709844019" height="0.2191037612811897" width="8.70967741935484"/><rect x="0.9677419354838701" y="599.7423648757447" height="0" width="8.70967741935484"/><rect x="20.32258064516129" y="600" height="0" width="8.70967741935484"/></g><g class="layer" style="fill: rgb(240, 2, 127);"><rect x="10.64516129032258" y="572.205122854609" height="1.940633314205229" width="8.70967741935484"/><rect x="0.9677419354838701" y="591.6268584617036" height="0" width="8.70967741935484"/><rect x="20.32258064516129" y="585.2573293123054" height="0" width="8.70967741935484"/></g><g class="layer" style="fill: rgb(127, 201, 127);"><rect x="10.64516129032258" y="597.5585580885805" height="0" width="8.70967741935484"/><rect x="0.9677419354838701" y="599.7423648757447" height="0" width="8.70967741935484"/><rect x="20.32258064516129" y="599.5550501804519" height="0.23730657042563053" width="8.70967741935484"/></g><g class="layer" style="fill: rgb(56, 108, 176);"><rect x="10.64516129032258" y="598.3097709844019" height="0" width="8.70967741935484"/><rect x="0.9677419354838701" y="599.7423648757447" height="0" width="8.70967741935484"/><rect x="20.32258064516129" y="599.7923567508775" height="0.20764324912249776" width="8.70967741935484"/></g><g class="layer" style="fill: rgb(190, 174, 212);"><rect x="10.64516129032258" y="585.4452501434608" height="0" width="8.70967741935484"/><rect x="0.9677419354838701" y="597.1660136331919" height="0.9983361064892051" width="8.70967741935484"/><rect x="20.32258064516129" y="592.1392198546497" height="0" width="8.70967741935484"/></g><g class="layer" style="fill: rgb(56, 108, 176);"><rect x="10.64516129032258" y="561.7820439250874" height="2.410141374093655" width="8.70967741935484"/><rect x="0.9677419354838701" y="589.4047555150019" height="0" width="8.70967741935484"/><rect x="20.32258064516129" y="581.9647006476491" height="0" width="8.70967741935484"/></g><g class="layer" style="fill: rgb(127, 201, 127);"><rect x="10.64516129032258" y="591.7992592206166" height="0.5634096718661112" width="8.70967741935484"/><rect x="0.9677419354838701" y="599.2592990177661" height="0" width="8.70967741935484"/><rect x="20.32258064516129" y="596.6777080140406" height="0" width="8.70967741935484"/></g><g class="layer" style="fill: rgb(255, 255, 153);"><rect x="10.64516129032258" y="590.0151285930408" height="0.5947102091919305" width="8.70967741935484"/><rect x="0.9677419354838701" y="599.2592990177661" height="0" width="8.70967741935484"/><rect x="20.32258064516129" y="596.6777080140406" height="0" width="8.70967741935484"/></g><g class="layer" style="fill: rgb(127, 201, 127);"><rect x="10.64516129032258" y="484.1880118942041" height="25.54123845792691" width="8.70967741935484"/><rect x="0.9677419354838701" y="517.5567602383124" height="1.9322634319146346" width="8.70967741935484"/><rect x="20.32258064516129" y="450.7638305235576" height="0.38562317694169224" width="8.70967741935484"/></g><g class="layer" style="fill: rgb(56, 108, 176);"><rect x="10.64516129032258" y="411.03865616359747" height="25.29083415931973" width="8.70967741935484"/><rect x="0.9677419354838701" y="501.6799957060813" height="4.637432236594918" width="8.70967741935484"/><rect x="20.32258064516129" y="422.85064517723833" height="1.0382162456122614" width="8.70967741935484"/></g><g class="layer" style="fill: rgb(255, 255, 153);"><rect x="10.64516129032258" y="584.4436329490322" height="0" width="8.70967741935484"/><rect x="0.9677419354838701" y="597.1660136331919" height="0" width="8.70967741935484"/><rect x="20.32258064516129" y="591.1899935729471" height="0.9492262817026358" width="8.70967741935484"/></g><g class="layer" style="fill: rgb(191, 91, 23);"><rect x="10.64516129032258" y="592.3626688924827" height="0" width="8.70967741935484"/><rect x="0.9677419354838701" y="599.2592990177661" height="0" width="8.70967741935484"/><rect x="20.32258064516129" y="597.1819844761952" height="0.5042764621545075" width="8.70967741935484"/></g><g class="layer" style="fill: rgb(102, 102, 102);"><rect x="10.64516129032258" y="509.72925035213103" height="7.699932182169107" width="8.70967741935484"/><rect x="0.9677419354838701" y="519.4890236702271" height="7.503622993934755" width="8.70967741935484"/><rect x="20.32258064516129" y="451.1494537004993" height="11.865328521283459" width="8.70967741935484"/></g><g class="layer" style="fill: rgb(240, 2, 127);"><rect x="10.64516129032258" y="518.9629088632688" height="2.347540299441789" width="8.70967741935484"/><rect x="0.9677419354838701" y="531.8233052439482" height="6.762922011700994" width="8.70967741935484"/><rect x="20.32258064516129" y="475.0284273495822" height="9.343946210510694" width="8.70967741935484"/></g><g class="layer" style="fill: rgb(253, 192, 134);"><rect x="10.64516129032258" y="588.0118942041838" height="0.8451145077990532" width="8.70967741935484"/><rect x="0.9677419354838701" y="599.2592990177661" height="0" width="8.70967741935484"/><rect x="20.32258064516129" y="593.8003658476295" height="0" width="8.70967741935484"/></g><g class="layer" style="fill: rgb(240, 2, 127);"><rect x="10.64516129032258" y="581.6265845897021" height="0.3130053732588749" width="8.70967741935484"/><rect x="0.9677419354838701" y="593.3658955504267" height="0.547474639042548" width="8.70967741935484"/><rect x="20.32258064516129" y="586.5328521283433" height="0.3856231769417491" width="8.70967741935484"/></g><g class="layer" style="fill: rgb(56, 108, 176);"><rect x="10.64516129032258" y="596.9951484167145" height="0" width="8.70967741935484"/><rect x="0.9677419354838701" y="599.7423648757447" height="0" width="8.70967741935484"/><rect x="20.32258064516129" y="599.0211103969941" height="0.266969891728877" width="8.70967741935484"/></g><g class="layer" style="fill: rgb(102, 102, 102);"><rect x="10.64516129032258" y="550.7329542490479" height="0" width="8.70967741935484"/><rect x="0.9677419354838701" y="583.1571037518115" height="0" width="8.70967741935484"/><rect x="20.32258064516129" y="566.154150393039" height="3.767241805507524" width="8.70967741935484"/></g><g class="layer" style="fill: rgb(191, 91, 23);"><rect x="10.64516129032258" y="550.7329542490479" height="0" width="8.70967741935484"/><rect x="0.9677419354838701" y="583.1571037518115" height="0" width="8.70967741935484"/><rect x="20.32258064516129" y="569.9213921985465" height="3.5595985563850263" width="8.70967741935484"/></g><g class="layer" style="fill: rgb(191, 91, 23);"><rect x="10.64516129032258" y="581.0005738431843" height="0.6260107465178635" width="8.70967741935484"/><rect x="0.9677419354838701" y="592.7218077397886" height="0.6440878106380978" width="8.70967741935484"/><rect x="20.32258064516129" y="586.5328521283433" height="0" width="8.70967741935484"/></g><g class="layer" style="fill: rgb(190, 174, 212);"><rect x="10.64516129032258" y="598.7479785069644" height="0" width="8.70967741935484"/><rect x="0.9677419354838701" y="599.7423648757447" height="0.1932263431915544" width="8.70967741935484"/><rect x="20.32258064516129" y="600" height="0" width="8.70967741935484"/></g><g class="layer" style="fill: rgb(240, 2, 127);"><rect x="10.64516129032258" y="596.7134435807815" height="0.2817048359330556" width="8.70967741935484"/><rect x="0.9677419354838701" y="599.7423648757447" height="0" width="8.70967741935484"/><rect x="20.32258064516129" y="599.0211103969941" height="0" width="8.70967741935484"/></g><g class="layer" style="fill: rgb(102, 102, 102);"><rect x="10.64516129032258" y="583.7863216651886" height="0" width="8.70967741935484"/><rect x="0.9677419354838701" y="596.0388599645752" height="0" width="8.70967741935484"/><rect x="20.32258064516129" y="588.7872645473872" height="1.0382162456122614" width="8.70967741935484"/></g><g class="layer" style="fill: rgb(191, 91, 23);"><rect x="10.64516129032258" y="526.4750378214826" height="0" width="8.70967741935484"/><rect x="0.9677419354838701" y="568.5041060597928" height="0" width="8.70967741935484"/><rect x="20.32258064516129" y="545.3008355168834" height="11.539031986948203" width="8.70967741935484"/></g><g class="layer" style="fill: rgb(240, 2, 127);"><rect x="10.64516129032258" y="411.03865616359747" height="0" width="8.70967741935484"/><rect x="0.9677419354838701" y="491.5356126885299" height="10.144383017551377" width="8.70967741935484"/><rect x="20.32258064516129" y="395.88668611262176" height="26.963959064616574" width="8.70967741935484"/></g><g class="layer" style="fill: rgb(255, 255, 153);"><rect x="10.64516129032258" y="588.0118942041838" height="0" width="8.70967741935484"/><rect x="0.9677419354838701" y="598.3897804734046" height="0.8695185443615401" width="8.70967741935484"/><rect x="20.32258064516129" y="593.8003658476295" height="0" width="8.70967741935484"/></g><g class="layer" style="fill: rgb(191, 91, 23);"><rect x="10.64516129032258" y="596.4317387448484" height="0.2817048359330556" width="8.70967741935484"/><rect x="0.9677419354838701" y="599.7423648757447" height="0" width="8.70967741935484"/><rect x="20.32258064516129" y="599.0211103969941" height="0" width="8.70967741935484"/></g><g class="layer" style="fill: rgb(127, 201, 127);"><rect x="10.64516129032258" y="600" height="0" width="8.70967741935484"/><rect x="0.9677419354838701" y="599.9355912189362" height="0.06440878106377568" width="8.70967741935484"/><rect x="20.32258064516129" y="600" height="0" width="8.70967741935484"/></g><g class="layer" style="fill: rgb(240, 2, 127);"><rect x="10.64516129032258" y="559.2153998643644" height="2.566644060722979" width="8.70967741935484"/><rect x="0.9677419354838701" y="589.4047555150019" height="0" width="8.70967741935484"/><rect x="20.32258064516129" y="581.9647006476491" height="0" width="8.70967741935484"/></g><g class="layer" style="fill: rgb(56, 108, 176);"><rect x="10.64516129032258" y="574.1457561688143" height="1.6902290155981063" width="8.70967741935484"/><rect x="0.9677419354838701" y="591.6268584617036" height="0" width="8.70967741935484"/><rect x="20.32258064516129" y="585.2573293123054" height="0" width="8.70967741935484"/></g><g class="layer" style="fill: rgb(240, 2, 127);"><rect x="10.64516129032258" y="587.3545829203401" height="0.6573112838436828" width="8.70967741935484"/><rect x="0.9677419354838701" y="598.1643497396811" height="0.22543073372344224" width="8.70967741935484"/><rect x="20.32258064516129" y="592.9697928511396" height="0" width="8.70967741935484"/></g><g class="layer" style="fill: rgb(253, 192, 134);"><rect x="10.64516129032258" y="554.426417653503" height="0.4069069852366738" width="8.70967741935484"/><rect x="0.9677419354838701" y="587.8589447694702" height="0.7729053727658766" width="8.70967741935484"/><rect x="20.32258064516129" y="574.6675236070598" height="1.6908093142828875" width="8.70967741935484"/></g><g class="layer" style="fill: rgb(253, 192, 134);"><rect x="10.64516129032258" y="566.5710261359486" height="2.378840836767722" width="8.70967741935484"/><rect x="0.9677419354838701" y="589.4047555150019" height="0" width="8.70967741935484"/><rect x="20.32258064516129" y="581.9647006476491" height="0" width="8.70967741935484"/></g><g class="layer" style="fill: rgb(255, 255, 153);"><rect x="10.64516129032258" y="564.192185299181" height="2.3788408367676084" width="8.70967741935484"/><rect x="0.9677419354838701" y="589.4047555150019" height="0" width="8.70967741935484"/><rect x="20.32258064516129" y="581.9647006476491" height="0" width="8.70967741935484"/></g><g class="layer" style="fill: rgb(190, 174, 212);"><rect x="10.64516129032258" y="599.9060983880223" height="0.0939016119776852" width="8.70967741935484"/><rect x="0.9677419354838701" y="599.9355912189362" height="0" width="8.70967741935484"/><rect x="20.32258064516129" y="600" height="0" width="8.70967741935484"/></g><g class="layer" style="fill: rgb(191, 91, 23);"><rect x="10.64516129032258" y="587.3545829203401" height="0" width="8.70967741935484"/><rect x="0.9677419354838701" y="598.1643497396811" height="0" width="8.70967741935484"/><rect x="20.32258064516129" y="592.1392198546497" height="0.8305729964898774" width="8.70967741935484"/></g><g class="layer" style="fill: rgb(240, 2, 127);"><rect x="10.64516129032258" y="590.0151285930408" height="0" width="8.70967741935484"/><rect x="0.9677419354838701" y="599.2592990177661" height="0" width="8.70967741935484"/><rect x="20.32258064516129" y="595.4911751619123" height="0.5932664260641332" width="8.70967741935484"/></g><g class="layer" style="fill: rgb(191, 91, 23);"><rect x="10.64516129032258" y="559.2153998643644" height="0" width="8.70967741935484"/><rect x="0.9677419354838701" y="589.4047555150019" height="0" width="8.70967741935484"/><rect x="20.32258064516129" y="579.38399169427" height="2.580708953379144" width="8.70967741935484"/></g><g class="layer" style="fill: rgb(255, 255, 153);"><rect x="10.64516129032258" y="592.8947780270228" height="0" width="8.70967741935484"/><rect x="0.9677419354838701" y="599.2592990177661" height="0" width="8.70967741935484"/><rect x="20.32258064516129" y="598.1608740792011" height="0.4449498195481283" width="8.70967741935484"/></g><g class="layer" style="fill: rgb(191, 91, 23);"><rect x="10.64516129032258" y="593.708591997496" height="0.37560644791062714" width="8.70967741935484"/><rect x="0.9677419354838701" y="599.7423648757447" height="0" width="8.70967741935484"/><rect x="20.32258064516129" y="599.0211103969941" height="0" width="8.70967741935484"/></g><g class="layer" style="fill: rgb(127, 201, 127);"><rect x="10.64516129032258" y="550.7329542490479" height="0" width="8.70967741935484"/><rect x="0.9677419354838701" y="580.838387633514" height="2.318716118297516" width="8.70967741935484"/><rect x="20.32258064516129" y="563.7810846887824" height="2.3730657042566463" width="8.70967741935484"/></g><g class="layer" style="fill: rgb(240, 2, 127);"><rect x="10.64516129032258" y="583.7863216651886" height="0.6573112838436828" width="8.70967741935484"/><rect x="0.9677419354838701" y="597.1660136331919" height="0" width="8.70967741935484"/><rect x="20.32258064516129" y="589.8254807929994" height="0.3856231769417491" width="8.70967741935484"/></g><g class="layer" style="fill: rgb(102, 102, 102);"><rect x="10.64516129032258" y="592.3626688924827" height="0" width="8.70967741935484"/><rect x="0.9677419354838701" y="599.2592990177661" height="0" width="8.70967741935484"/><rect x="20.32258064516129" y="596.6777080140406" height="0.5042764621546212" width="8.70967741935484"/></g><g class="layer" style="fill: rgb(102, 102, 102);"><rect x="10.64516129032258" y="596.1500339089155" height="0.28170483593294193" width="8.70967741935484"/><rect x="0.9677419354838701" y="599.7423648757447" height="0" width="8.70967741935484"/><rect x="20.32258064516129" y="599.0211103969941" height="0" width="8.70967741935484"/></g><g class="layer" style="fill: rgb(190, 174, 212);"><rect x="10.64516129032258" y="588.8570087119829" height="0.7825134331473009" width="8.70967741935484"/><rect x="0.9677419354838701" y="599.2592990177661" height="0" width="8.70967741935484"/><rect x="20.32258064516129" y="593.8003658476295" height="0" width="8.70967741935484"/></g></g></svg>